<svg width="393" height="130" viewBox="0 0 393 130" fill="none" xmlns="http://www.w3.org/2000/svg">
<path d="M11.7638 129.142C4.35683 129.142 -0.000184596 124.611 -0.000184596 116.855V16.9923C-0.000184596 6.36119 6.27392 -6.06701e-05 16.9922 -6.06701e-05C26.1419 -6.06701e-05 31.1961 3.83412 35.0303 13.5938L66.2265 90.8874H66.9236L98.0328 13.5938C101.867 3.92126 107.008 -6.06701e-05 116.245 -6.06701e-05C126.876 -6.06701e-05 133.15 6.27405 133.15 16.9923V116.855C133.15 124.611 128.793 129.142 121.386 129.142C113.979 129.142 109.71 124.611 109.71 116.855V42.6116H109.012L77.9033 118.685C75.6377 124.262 72.1521 126.702 66.6622 126.702C61.0852 126.702 57.4253 124.175 55.2468 118.772L24.1377 42.6116H23.4406V116.855C23.4406 124.611 19.1707 129.142 11.7638 129.142ZM194.759 129.491C166.525 129.491 148.487 111.365 148.487 80.6919C148.487 50.4542 166.787 32.0676 194.759 32.0676C222.731 32.0676 241.03 50.3671 241.03 80.6919C241.03 111.452 222.992 129.491 194.759 129.491ZM194.759 110.058C207.22 110.058 215.149 99.5143 215.149 80.7791C215.149 62.2182 207.133 51.4999 194.759 51.4999C182.385 51.4999 174.281 62.2182 174.281 80.7791C174.281 99.5143 182.21 110.058 194.759 110.058ZM266.911 129.316C259.33 129.316 254.188 124.698 254.188 116.071V45.1387C254.188 36.5989 259.242 32.1547 266.475 32.1547C273.708 32.1547 278.762 36.5989 278.762 45.1387V50.9771H279.285C283.206 39.736 293.227 32.329 305.95 32.329C319.456 32.329 328.868 39.3003 332.005 51.4999H332.528C336.71 39.736 347.864 32.329 361.545 32.329C379.845 32.329 392.132 44.8772 392.132 63.6996V116.071C392.132 124.698 386.903 129.316 379.322 129.316C371.828 129.316 366.687 124.698 366.687 116.071V70.0608C366.687 59.2554 361.284 53.3299 351.437 53.3299C341.764 53.3299 335.403 60.3882 335.403 70.7579V116.071C335.403 124.698 330.698 129.316 323.116 129.316C315.622 129.316 310.917 124.698 310.917 116.071V69.2765C310.917 59.2554 305.253 53.3299 295.841 53.3299C286.169 53.3299 279.633 60.6496 279.633 71.1065V116.071C279.633 124.698 274.405 129.316 266.911 129.316Z" fill="#FF2D55"/>
</svg>
