<svg xmlns="http://www.w3.org/2000/svg" viewBox="0 0 24 24" width="24" height="24" color="#000000" fill="none">
    <path opacity="0.4" fill-rule="evenodd" clip-rule="evenodd" d="M10.5 5.82275V18.8228V18.8229C10.5 19.2928 10.5 19.5228 10.58 19.7028C10.68 19.9428 10.88 20.1427 11.12 20.2427C11.3 20.3227 11.54 20.3228 12 20.3228C12.46 20.3228 12.7 20.3227 12.88 20.2427C13.13 20.1427 13.32 19.9428 13.42 19.7028C13.5 19.5228 13.5 19.2828 13.5 18.8228V5.82275C13.5 5.35275 13.5 5.12275 13.42 4.94275C13.32 4.70275 13.12 4.50274 12.88 4.40274C12.7 4.32275 12.4601 4.32275 12.0002 4.32275H12H11.9998C11.5399 4.32275 11.3 4.32275 11.12 4.40274C10.87 4.50274 10.68 4.70275 10.58 4.94275C10.5 5.12274 10.5 5.36272 10.5 5.82266V5.82275ZM3.5 9.82275V18.8228V18.8229C3.5 19.2928 3.5 19.5228 3.57999 19.7028C3.67999 19.9428 3.88 20.1427 4.12 20.2427C4.3 20.3227 4.54 20.3228 5 20.3228C5.46 20.3228 5.7 20.3227 5.88 20.2427C6.13 20.1427 6.32 19.9428 6.42 19.7028C6.5 19.5228 6.5 19.2828 6.5 18.8228V9.82275C6.5 9.35275 6.5 9.12275 6.42 8.94275C6.32 8.70275 6.12 8.50274 5.88 8.40274C5.70003 8.32275 5.46008 8.32275 5.00023 8.32275H5H4.99977C4.53992 8.32275 4.29997 8.32275 4.12 8.40274C3.87 8.50274 3.67999 8.70275 3.57999 8.94275C3.5 9.12274 3.5 9.36272 3.5 9.82265V9.82275ZM17.5 18.8228V12.8228C17.5 12.3628 17.5 12.1227 17.58 11.9427C17.68 11.7027 17.87 11.5027 18.12 11.4027C18.3 11.3228 18.5399 11.3228 18.9998 11.3228H19H19.0002C19.4601 11.3228 19.7 11.3228 19.88 11.4027C20.12 11.5027 20.32 11.7027 20.42 11.9427C20.5 12.1227 20.5 12.3528 20.5 12.8228V18.8228C20.5 19.2828 20.5 19.5228 20.42 19.7028C20.32 19.9428 20.13 20.1427 19.88 20.2427C19.7 20.3227 19.46 20.3228 19 20.3228C18.54 20.3228 18.3 20.3227 18.12 20.2427C17.88 20.1427 17.68 19.9428 17.58 19.7028C17.5 19.5228 17.5 19.2928 17.5 18.8228Z" fill="currentColor" />
    <path fill-rule="evenodd" clip-rule="evenodd" d="M11.9978 21.0728C11.4678 21.0728 11.1478 21.0727 10.8278 20.9327C10.3978 20.7627 10.0678 20.4227 9.88782 19.9927C9.75782 19.6727 9.75781 19.3528 9.75781 18.8228V5.82275C9.75781 5.29275 9.75782 4.97274 9.88782 4.65274C10.0678 4.22274 10.4078 3.88276 10.8378 3.70276C11.1578 3.57276 11.4778 3.57275 12.0078 3.57275C12.5378 3.57275 12.8578 3.57276 13.1778 3.70276C13.6078 3.88276 13.9478 4.22274 14.1278 4.65274C14.2578 4.97274 14.2578 5.29275 14.2578 5.82275V18.8228C14.2578 19.3528 14.2578 19.6727 14.1278 19.9927C13.9478 20.4227 13.6078 20.7627 13.1778 20.9427C12.8578 21.0727 12.5378 21.0728 12.0078 21.0728H11.9978ZM11.9978 5.07275H11.9974C11.7375 5.07275 11.4678 5.07275 11.3978 5.09274C11.3378 5.11274 11.2878 5.16275 11.2678 5.22275C11.2478 5.28274 11.2478 5.55264 11.2478 5.8126V5.81274V18.8127V18.8129C11.2478 19.0728 11.2478 19.3428 11.2678 19.4128C11.2878 19.4728 11.3378 19.5228 11.3978 19.5428C11.5378 19.5828 12.4578 19.5828 12.5978 19.5428C12.6578 19.5228 12.7078 19.4727 12.7278 19.4027C12.7478 19.3427 12.7478 19.0727 12.7478 18.8127V5.81274C12.7478 5.55274 12.7478 5.28277 12.7278 5.21277C12.7078 5.15277 12.6578 5.10276 12.5978 5.08276C12.5378 5.06276 12.2678 5.06274 12.0078 5.06274L11.9978 5.07275ZM5 21.0728C4.47 21.0728 4.14999 21.0727 3.82999 20.9427C3.39999 20.7627 3.06 20.4327 2.88 19.9927C2.75 19.6727 2.75 19.3528 2.75 18.8228V18.8228V9.82275V9.82272C2.75 9.29274 2.75 8.97273 2.88 8.65274C3.06 8.22274 3.39999 7.88276 3.82999 7.70276C4.14999 7.57276 4.47 7.57275 5 7.57275C5.53 7.57275 5.85 7.57276 6.17 7.70276C6.6 7.88276 6.94 8.21274 7.12 8.65274C7.25 8.97274 7.25 9.29275 7.25 9.82275V18.8228C7.25 19.3528 7.25 19.6727 7.12 19.9927C6.94 20.4227 6.6 20.7627 6.17 20.9427C5.85 21.0727 5.53 21.0728 5 21.0728ZM5 9.07275H4.99957C4.7397 9.07275 4.46996 9.07275 4.39999 9.09274C4.33999 9.11274 4.29 9.16275 4.27 9.22275C4.25 9.28274 4.25 9.55265 4.25 9.81261V9.81274V18.8127V18.8129C4.25 19.0728 4.25 19.3428 4.27 19.4128C4.29 19.4728 4.33999 19.5228 4.39999 19.5428C4.52999 19.5828 5.46 19.5828 5.6 19.5428C5.66 19.5228 5.71 19.4728 5.73 19.4128C5.75 19.3527 5.75 19.0828 5.75 18.8228V9.82275C5.75 9.56275 5.75 9.29275 5.73 9.22275C5.71 9.16275 5.66 9.11274 5.6 9.09274C5.54003 9.07275 5.2703 9.07275 5.00044 9.07275H5ZM17.83 20.9427C18.15 21.0727 18.47 21.0728 19 21.0728C19.53 21.0728 19.85 21.0727 20.17 20.9427C20.6 20.7627 20.94 20.4227 21.12 19.9927C21.25 19.6727 21.25 19.3528 21.25 18.8228V12.8228C21.25 12.2928 21.25 11.9727 21.12 11.6527C20.94 11.2127 20.6 10.8828 20.17 10.7028C19.85 10.5728 19.53 10.5728 19 10.5728C18.47 10.5728 18.15 10.5728 17.83 10.7028C17.4 10.8828 17.06 11.2227 16.88 11.6527C16.75 11.9727 16.75 12.2927 16.75 12.8226V12.8228V18.8228V18.8229C16.75 19.3528 16.75 19.6728 16.88 19.9927C17.06 20.4327 17.4 20.7627 17.83 20.9427ZM18.9996 12.0728H19H19.0005C19.2703 12.0728 19.54 12.0728 19.6 12.0927C19.66 12.1127 19.71 12.1627 19.73 12.2227C19.75 12.2927 19.75 12.5628 19.75 12.8228V18.8228C19.75 19.0828 19.75 19.3527 19.73 19.4128C19.71 19.4728 19.66 19.5228 19.6 19.5428C19.46 19.5828 18.53 19.5828 18.4 19.5428C18.34 19.5228 18.29 19.4728 18.27 19.4128C18.25 19.3428 18.25 19.0727 18.25 18.8127V12.8127C18.25 12.5527 18.25 12.2827 18.27 12.2227C18.29 12.1627 18.34 12.1127 18.4 12.0927C18.47 12.0728 18.7397 12.0728 18.9996 12.0728Z" fill="currentColor" />
</svg>