<svg width="818" height="816" viewBox="0 0 818 816" fill="none" xmlns="http://www.w3.org/2000/svg">
<path d="M75.9722 735.511C26.1977 729.399 3.86059 694.746 11.0658 636.065L75.3977 112.123C83.9538 42.4392 128.984 4.88916 192.905 12.7377C248.443 19.5568 281.185 51.7646 299.755 130.098L394.725 504.474L400.488 505.181L582.747 164.313C620.368 91.8156 657.641 69.8001 715.799 76.9409C780.767 84.9181 812.949 130.353 804.2 201.609L739.868 725.55C732.856 782.66 699.986 812.13 649.688 805.954C600.437 799.907 578.1 765.254 585.305 706.573L629.502 346.625L624.786 346.046L460.974 649.291C433.979 700.224 407.819 714.031 372.715 709.721C337.087 705.346 314.649 684.509 300.648 629.606L214.54 295.674L210.348 295.159L166.152 655.107C159.14 712.217 126.271 741.687 75.9722 735.511Z" fill="black"/>
</svg>
