<svg xmlns="http://www.w3.org/2000/svg" viewBox="0 0 24 24" width="24" height="24" color="#000000" fill="none">
    <path fill-rule="evenodd" clip-rule="evenodd" d="M5.333 2.25392C7.447 2.25092 9.50301 2.86391 11.25 3.99691V21.7539C9.594 20.3989 7.501 19.6519 5.334 19.6549H5.319C4.556 19.6549 3.94601 19.6549 3.48501 19.6259C3.11101 19.6019 2.572 19.4789 2.241 19.3169C2.117 19.2369 1.993 19.1489 1.875 19.0299C1.757 18.9119 1.66801 18.7879 1.58901 18.6639C1.37401 18.3289 1.31 17.9319 1.28 17.5559C1.25 17.1709 1.25 16.6779 1.25 16.0799V6.40591C1.25 5.71591 1.24801 5.11091 1.32801 4.60891C1.41501 4.06791 1.60301 3.59292 2.00501 3.16992C2.79101 2.34092 3.676 2.32492 4.743 2.26892C4.939 2.25792 5.135 2.25392 5.333 2.25392Z" fill="currentColor" />
    <g opacity="0.4">
        <path fill-rule="evenodd" clip-rule="evenodd" d="M18.667 2.25392C16.553 2.25092 14.497 2.86391 12.75 3.99691V21.7539C14.406 20.3989 16.499 19.6519 18.666 19.6549H18.681C19.444 19.6549 20.054 19.6549 20.515 19.6259C20.889 19.6019 21.428 19.4789 21.759 19.3169C21.883 19.2369 22.007 19.1489 22.125 19.0299C22.243 18.9119 22.332 18.7879 22.411 18.6639C22.626 18.3289 22.69 17.9319 22.72 17.5559C22.75 17.1709 22.75 16.6779 22.75 16.0799V6.40591C22.75 5.71591 22.752 5.11091 22.672 4.60891C22.585 4.06791 22.397 3.59292 21.995 3.16992C21.209 2.34092 20.324 2.32492 19.257 2.26892C19.061 2.25792 18.865 2.25392 18.667 2.25392Z" fill="currentColor" />
    </g>
</svg>