<svg xmlns="http://www.w3.org/2000/svg" viewBox="0 0 24 24" width="24" height="24" color="#000000" fill="none">
    <path fill-rule="evenodd" clip-rule="evenodd" d="M11.9978 21.0778C11.4678 21.0778 11.1478 21.0777 10.8278 20.9377C10.4078 20.7677 10.0578 20.4177 9.88781 19.9877C9.75781 19.6677 9.75781 19.3478 9.75781 18.8178V18.8177V5.81775V5.81771C9.75781 5.28773 9.75781 4.96776 9.88781 4.64777C10.0678 4.21777 10.3978 3.87775 10.8378 3.69775C11.1578 3.56775 11.4778 3.56775 12.0078 3.56775C12.5378 3.56775 12.8578 3.56775 13.1778 3.69775C13.6078 3.87775 13.9478 4.21777 14.1278 4.64777C14.2578 4.96777 14.2578 5.28775 14.2578 5.81775V18.8177C14.2578 19.3477 14.2578 19.6677 14.1278 19.9877C13.9478 20.4177 13.6078 20.7577 13.1778 20.9377C12.8578 21.0677 12.5378 21.0677 12.0078 21.0677L11.9978 21.0778ZM11.9978 5.07776H11.9974C11.7375 5.07776 11.4678 5.07776 11.3978 5.09775C11.3378 5.11775 11.2978 5.16775 11.2678 5.22775C11.2478 5.28775 11.2478 5.55776 11.2478 5.82776V18.8278C11.2478 19.0878 11.2478 19.3578 11.2678 19.4278C11.2878 19.4878 11.3378 19.5378 11.3978 19.5578C11.5378 19.5978 12.4578 19.5978 12.5978 19.5578C12.6578 19.5378 12.7078 19.4878 12.7278 19.4278C12.7478 19.3678 12.7478 19.0978 12.7478 18.8378V5.83777C12.7478 5.57777 12.7478 5.30776 12.7278 5.23776C12.7078 5.17776 12.6578 5.12776 12.5978 5.10776C12.5378 5.08777 12.2681 5.08777 12.0082 5.08777H12.0078L11.9978 5.07776ZM5 21.0756C4.47 21.0756 4.15 21.0756 3.83 20.9456C3.4 20.7656 3.06 20.4255 2.88 19.9955C2.75 19.6755 2.75 19.3556 2.75 18.8256V9.82556C2.75 9.29556 2.75 8.97555 2.88 8.65555C3.06 8.22555 3.4 7.88557 3.83 7.70557C4.15 7.57557 4.47 7.57556 5 7.57556C5.53 7.57556 5.85 7.57557 6.17 7.70557C6.6 7.88557 6.94 8.22555 7.12 8.65555C7.25 8.97555 7.25 9.29556 7.25 9.82556V18.8256C7.25 19.3556 7.25 19.6755 7.12 19.9955C6.94 20.4255 6.6 20.7656 6.17 20.9456C5.85 21.0756 5.53 21.0756 5 21.0756ZM5 9.07556H4.99957C4.7397 9.07556 4.46996 9.07556 4.4 9.09555C4.34 9.11555 4.3 9.16556 4.27 9.22556C4.25 9.28556 4.25 9.55556 4.25 9.82556V18.8256C4.25 19.0856 4.25 19.3556 4.27 19.4256C4.29 19.4856 4.34 19.5356 4.4 19.5556C4.53 19.5956 5.46 19.5956 5.6 19.5556C5.66 19.5356 5.7 19.4856 5.73 19.4256C5.75 19.3656 5.75 19.0956 5.75 18.8256V18.8256V9.82556V9.82551C5.75 9.56552 5.75 9.29555 5.73 9.22556C5.71 9.16556 5.66 9.11555 5.6 9.09555C5.54003 9.07556 5.2703 9.07556 5.00044 9.07556H5ZM17.83 20.9456C18.15 21.0756 18.47 21.0756 19 21.0756C19.53 21.0756 19.85 21.0756 20.17 20.9456C20.6 20.7656 20.94 20.4255 21.12 19.9955C21.25 19.6755 21.25 19.3556 21.25 18.8256V12.8256C21.25 12.2956 21.25 11.9755 21.12 11.6555C20.94 11.2255 20.6 10.8856 20.17 10.7056C19.85 10.5756 19.53 10.5756 19 10.5756C18.47 10.5756 18.15 10.5756 17.83 10.7056C17.4 10.8856 17.06 11.2255 16.88 11.6555C16.75 11.9755 16.75 12.2956 16.75 12.8256V18.8256C16.75 19.3556 16.75 19.6755 16.88 19.9955C17.06 20.4255 17.4 20.7656 17.83 20.9456ZM18.9996 12.0756H19H19.0005C19.2703 12.0756 19.54 12.0756 19.6 12.0956C19.66 12.1156 19.71 12.1656 19.73 12.2256C19.75 12.2956 19.75 12.5656 19.75 12.8256V18.8256C19.75 19.0956 19.75 19.3656 19.73 19.4256C19.7 19.4856 19.66 19.5356 19.6 19.5556C19.46 19.5956 18.53 19.5956 18.4 19.5556C18.34 19.5356 18.29 19.4856 18.27 19.4256C18.25 19.3556 18.25 19.0856 18.25 18.8256V12.8256C18.25 12.5556 18.25 12.2856 18.27 12.2256C18.3 12.1656 18.34 12.1156 18.4 12.0956C18.47 12.0756 18.7397 12.0756 18.9996 12.0756Z" fill="currentColor" />
</svg>