<svg xmlns="http://www.w3.org/2000/svg" viewBox="0 0 24 24" width="24" height="24" color="#000000" fill="none">
    <g opacity="0.4">
        <path fill-rule="evenodd" clip-rule="evenodd" d="M5.3333 3.00001C7.7938 2.99701 10.1685 3.88701 12 5.50001V21C10.1685 19.387 7.7938 18.497 5.3333 18.5C3.7713 18.5 2.9903 18.5 2.6453 18.279C2.4381 18.147 2.3535 18.062 2.2209 17.855C2 17.51 2 16.894 2 15.663V6.40301C2 4.97501 2 4.26201 2.5487 3.68301C3.0975 3.10401 3.6592 3.07401 4.7827 3.01501C4.965 3.00501 5.1486 3.00001 5.3333 3.00001Z" fill="currentColor" />
    </g>
    <path fill-rule="evenodd" clip-rule="evenodd" d="M18.668 2.25101C18.865 2.25101 19.062 2.25501 19.257 2.26601C20.324 2.32201 21.209 2.33801 21.995 3.16701C22.397 3.59001 22.585 4.065 22.672 4.606C22.752 5.108 22.75 5.713 22.75 6.403V15.663C22.75 16.266 22.75 16.763 22.72 17.15C22.69 17.527 22.626 17.924 22.411 18.259C22.332 18.383 22.243 18.507 22.125 18.625C22.007 18.743 21.883 18.832 21.759 18.911C21.406 19.137 20.942 19.193 20.515 19.221C20.051 19.25 19.437 19.25 18.667 19.25C16.388 19.247 14.188 20.072 12.495 21.562C12.478 21.578 12.458 21.591 12.439 21.604C12.428 21.613 12.417 21.622 12.405 21.63C12.375 21.65 12.343 21.668 12.309 21.684C12.298 21.689 12.286 21.691 12.274 21.695C12.221 21.717 12.165 21.733 12.108 21.741C12.087 21.744 12.066 21.745 12.045 21.746C12.03 21.747 12.015 21.749 12 21.749C11.9846 21.749 11.9694 21.747 11.9541 21.746C11.9329 21.745 11.9117 21.744 11.8906 21.741C11.8337 21.733 11.7784 21.717 11.7246 21.695C11.7137 21.691 11.7021 21.688 11.6914 21.684C11.6572 21.668 11.6247 21.65 11.5938 21.63C11.5818 21.622 11.5711 21.613 11.5596 21.604C11.5407 21.591 11.5213 21.578 11.5039 21.562C9.8109 20.072 7.6131 19.247 5.334 19.25C4.564 19.25 3.9486 19.25 3.4854 19.221C3.058 19.193 2.59451 19.137 2.24121 18.911C2.11711 18.832 1.9933 18.743 1.875 18.625C1.7567 18.507 1.6683 18.383 1.5889 18.259C1.3744 17.924 1.3099 17.527 1.2803 17.15C1.2498 16.763 1.25 16.266 1.25 15.663V6.403C1.25 5.713 1.24801 5.108 1.32811 4.606C1.41471 4.065 1.6034 3.59001 2.0049 3.16701C2.7914 2.33801 3.67611 2.32201 4.74321 2.26601C4.93821 2.25501 5.13451 2.25101 5.33201 2.25101C7.75741 2.24801 10.1069 3.05501 12 4.52901C13.893 3.05501 16.243 2.24801 18.668 2.25101ZM4.82231 3.76401C3.64261 3.82601 3.4037 3.87101 3.0928 4.19901C2.9457 4.35401 2.86021 4.526 2.80961 4.843C2.75251 5.2 2.75 5.666 2.75 6.403V15.663C2.75 16.291 2.7507 16.718 2.7754 17.032C2.8008 17.355 2.84601 17.44 2.85251 17.45C2.90571 17.533 2.9266 17.555 2.9356 17.564C2.9445 17.573 2.9668 17.594 3.0498 17.647C3.0599 17.651 3.1773 17.698 3.5811 17.724C3.985 17.749 4.5417 17.75 5.333 17.75C7.4473 17.747 9.5032 18.36 11.25 19.494V5.849C9.594 4.494 7.5011 3.747 5.334 3.75C5.1627 3.75 4.99121 3.75501 4.82231 3.76401ZM18.666 3.75C16.499 3.747 14.406 4.494 12.75 5.849V19.494C14.497 18.36 16.553 17.747 18.667 17.75C19.458 17.75 20.015 17.749 20.419 17.724C20.823 17.698 20.94 17.651 20.95 17.647C21.033 17.594 21.056 17.573 21.064 17.564C21.073 17.555 21.094 17.533 21.147 17.45C21.154 17.44 21.199 17.355 21.225 17.032C21.249 16.718 21.25 16.291 21.25 15.663V6.403C21.25 5.666 21.247 5.2 21.19 4.843C21.14 4.526 21.054 4.35401 20.907 4.19901C20.596 3.87101 20.357 3.82601 19.178 3.76401C19.009 3.75501 18.837 3.75 18.666 3.75Z" fill="currentColor" />
</svg>